<?xml version="1.0" encoding="UTF-8" standalone="no"?>
<!-- Created with Inkscape (http://www.inkscape.org/) -->

<svg
   xmlns:dc="http://purl.org/dc/elements/1.1/"
   xmlns:cc="http://creativecommons.org/ns#"
   xmlns:rdf="http://www.w3.org/1999/02/22-rdf-syntax-ns#"
   xmlns:svg="http://www.w3.org/2000/svg"
   xmlns="http://www.w3.org/2000/svg"
   xmlns:sodipodi="http://sodipodi.sourceforge.net/DTD/sodipodi-0.dtd"
   xmlns:inkscape="http://www.inkscape.org/namespaces/inkscape"
   id="svg4190"
   version="1.1"
   inkscape:version="0.91 r13725"
   width="64"
   height="64"
   viewBox="0 0 64 64"
   sodipodi:docname="logo.svg">
  <metadata
     id="metadata4196">
    <rdf:RDF>
      <cc:Work
         rdf:about="">
        <dc:format>image/svg+xml</dc:format>
        <dc:type
           rdf:resource="http://purl.org/dc/dcmitype/StillImage" />
        <dc:title></dc:title>
      </cc:Work>
    </rdf:RDF>
  </metadata>
  <defs
     id="defs4194" />
  <sodipodi:namedview
     pagecolor="#ffffff"
     bordercolor="#666666"
     borderopacity="1"
     objecttolerance="10"
     gridtolerance="10"
     guidetolerance="10"
     inkscape:pageopacity="0"
     inkscape:pageshadow="2"
     inkscape:window-width="1855"
     inkscape:window-height="1056"
     id="namedview4192"
     showgrid="false"
     inkscape:zoom="4"
     inkscape:cx="63.131073"
     inkscape:cy="34.925443"
     inkscape:window-x="65"
     inkscape:window-y="24"
     inkscape:window-maximized="1"
     inkscape:current-layer="g4200"
     fit-margin-top="1"
     fit-margin-left="1"
     fit-margin-right="1"
     fit-margin-bottom="1" />
  <g
     id="g4200"
     transform="translate(41.377051,-12.9648)">
    <g
       transform="matrix(2.5966387,0,0,2.5867876,-81.597398,-70.398284)"
       style="font-style:normal;font-variant:normal;font-weight:normal;font-stretch:normal;font-size:40px;line-height:125%;font-family:'Courier 10 Pitch';-inkscape-font-specification:'Courier 10 Pitch';letter-spacing:0px;word-spacing:0px;fill:#000000;fill-opacity:1;stroke:none;stroke-width:1px;stroke-linecap:butt;stroke-linejoin:miter;stroke-opacity:1"
       id="flowRoot4187">
      <path
         style="font-size:40px;fill:#476f9d;fill-opacity:1;stroke:none;stroke-opacity:1"
         d="m 17.289343,33.211061 c -0.559999,0 -1.080123,0.479807 -1.080123,1.319807 0,0.88 0.520145,1.319808 1.520145,1.319808 l 0.239943,0 2.959806,19.480001 c 0.08,0.64 0.160179,1.039688 0.840179,1.039688 l 1.480279,0 c 0.68,0 0.880257,-0.199586 1.040257,-0.799586 l 3.475046,-12.460405 0,-4.37998 -0.07522,0 c -0.84,0 -1.000469,0.24041 -1.20047,0.96041 l -3.359963,11.679694 -2.119627,-15.519822 2.759727,0 c 1.16,0 1.720223,-0.399808 1.720223,-1.319808 0,-1.08 -0.600436,-1.319807 -1.880436,-1.319807 l -6.319768,0 z"
         id="path4196"
         inkscape:connector-curvature="0" />
      <path
         style="font-style:normal;font-variant:normal;font-weight:normal;font-stretch:normal;font-size:40px;line-height:125%;font-family:'Courier 10 Pitch';-inkscape-font-specification:'Courier 10 Pitch';letter-spacing:0px;word-spacing:0px;fill:#ed2024;fill-opacity:1;stroke:none;stroke-width:1px;stroke-linecap:butt;stroke-linejoin:miter;stroke-opacity:1"
         d="m 38.087618,33.217867 c 0.551825,0 1.064357,0.479807 1.064357,1.319807 0,0.88 -0.512553,1.319808 -1.497957,1.319808 l -0.23644,0 -2.916604,19.480001 c -0.07883,0.64 -0.157841,1.039688 -0.827916,1.039688 l -1.458671,0 c -0.670075,0 -0.867409,-0.199586 -1.025074,-0.799586 L 27.76499,43.11718 l 0,-4.37998 0.07412,0 c 0.827739,0 0.985866,0.24041 1.182948,0.96041 l 3.310919,11.679694 2.08869,-15.519822 -2.719445,0 c -1.14307,0 -1.695115,-0.399808 -1.695115,-1.319808 0,-1.08 0.591671,-1.319807 1.852988,-1.319807 l 6.227523,0 z"
         id="path4196-4"
         inkscape:connector-curvature="0" />
    </g>
  </g>
</svg>
